<mxfile host="app.diagrams.net" modified="2024-06-18T15:57:09.978Z" agent="Mozilla/5.0 (Windows NT 10.0; Win64; x64) AppleWebKit/537.36 (KHTML, like Gecko) Chrome/125.0.0.0 Safari/537.36" version="24.5.5" etag="zq4BSd5u2I8j6uaKkiON" type="github">
  <diagram name="Pagina-1" id="Vg5O_YNG4rHayvgFsu1N">
    <mxGraphModel>
      <root>
        <mxCell id="0" />
        <mxCell id="1" parent="0" />
      </root>
    </mxGraphModel>
  </diagram>
</mxfile>
